<?xml version="1.0" standalone="yes"?>

<svg version="1.1" viewBox="0.0 0.0 517.0 474.0" fill="none" stroke="none" stroke-linecap="square" stroke-miterlimit="10" xmlns="http://www.w3.org/2000/svg" xmlns:xlink="http://www.w3.org/1999/xlink"><clipPath id="p.0"><path d="m0 0l517.0 0l0 474.0l-517.0 0l0 -474.0z" clip-rule="nonzero"></path></clipPath><g clip-path="url(#p.0)"><path fill="#000000" fill-opacity="0.0" d="m0 0l517.7559 0l0 474.55643l-517.7559 0z" fill-rule="nonzero"></path><path fill="#000000" d="m245.8117 215.36876l32.345093 0l0 0c30.151337 0 59.06775 11.97757 80.38794 33.29779c21.32022 21.320206 33.29779 50.236618 33.29779 80.387924l0 146.03082c0 0.0011901855 -9.765625E-4 0.002166748 -0.002166748 0.002166748l-259.71436 -0.002166748l0 0c-0.0012054443 0 -0.002166748 -9.765625E-4 -0.002166748 -0.002166748l0.002166748 -146.02866l0 0c0 -62.786865 50.89882 -113.685715 113.685715 -113.685715z" fill-rule="nonzero"></path><path fill="#000000" d="m165.85826 95.597115l0 0c0 -53.088917 43.03708 -96.125984 96.12599 -96.125984l0 0c25.494202 0 49.944214 10.12753 67.971344 28.15465c18.0271 18.027119 28.154633 42.477142 28.154633 67.97134l0 0c0 53.08892 -43.03705 96.125984 -96.12598 96.125984l0 0c-53.088913 0 -96.12599 -43.037064 -96.12599 -96.125984z" fill-rule="nonzero"></path></g></svg>

